<mxfile host="app.diagrams.net" modified="2022-08-21T14:08:51.368Z" agent="5.0 (Macintosh; Intel Mac OS X 10_15_7) AppleWebKit/537.36 (KHTML, like Gecko) Chrome/103.0.0.0 Safari/537.36" etag="CAsX3DWFsdYbJtu228RJ" version="20.2.3" type="github">
  <diagram id="GbncoUWseBvU7BKK2AJM" name="第 1 页">
    <mxGraphModel dx="1426" dy="770" grid="0" gridSize="10" guides="1" tooltips="1" connect="1" arrows="1" fold="1" page="1" pageScale="1" pageWidth="3300" pageHeight="4681" math="0" shadow="0">
      <root>
        <mxCell id="0" />
        <mxCell id="1" parent="0" />
        <mxCell id="khzNMPUFedaNidEhiiPi-1" value="&lt;font style=&quot;font-size: 13px;&quot;&gt;DataBlock 0&lt;/font&gt;" style="rounded=0;whiteSpace=wrap;html=1;fillColor=#ffe6cc;strokeColor=#000000;strokeWidth=1;fontSize=13;" vertex="1" parent="1">
          <mxGeometry x="188" y="121" width="157" height="37" as="geometry" />
        </mxCell>
        <mxCell id="khzNMPUFedaNidEhiiPi-2" value="&lt;font style=&quot;font-size: 13px;&quot;&gt;DataBlock 1&lt;/font&gt;" style="rounded=0;whiteSpace=wrap;html=1;fillColor=#ffe6cc;strokeColor=#000000;strokeWidth=1;fontSize=13;" vertex="1" parent="1">
          <mxGeometry x="188" y="158" width="157" height="37" as="geometry" />
        </mxCell>
        <mxCell id="khzNMPUFedaNidEhiiPi-3" value="&lt;font style=&quot;font-size: 13px;&quot;&gt;DataBlock 2&lt;/font&gt;" style="rounded=0;whiteSpace=wrap;html=1;fillColor=#ffe6cc;strokeColor=#000000;strokeWidth=1;fontSize=13;" vertex="1" parent="1">
          <mxGeometry x="188" y="195" width="157" height="37" as="geometry" />
        </mxCell>
        <mxCell id="khzNMPUFedaNidEhiiPi-4" value="&lt;span style=&quot;font-size: 13px;&quot;&gt;...&lt;/span&gt;" style="rounded=0;whiteSpace=wrap;html=1;fillColor=#ffe6cc;strokeColor=#000000;strokeWidth=1;fontSize=13;" vertex="1" parent="1">
          <mxGeometry x="188" y="230" width="157" height="37" as="geometry" />
        </mxCell>
        <mxCell id="khzNMPUFedaNidEhiiPi-5" value="&lt;span style=&quot;font-size: 13px;&quot;&gt;DataBlock N&lt;/span&gt;" style="rounded=0;whiteSpace=wrap;html=1;fillColor=#ffe6cc;strokeColor=#000000;strokeWidth=1;fontSize=13;" vertex="1" parent="1">
          <mxGeometry x="188" y="267" width="157" height="37" as="geometry" />
        </mxCell>
        <mxCell id="khzNMPUFedaNidEhiiPi-6" value="FilterBlock 0" style="rounded=0;whiteSpace=wrap;html=1;fontSize=13;strokeColor=#000000;strokeWidth=1;fillColor=#d5e8d4;" vertex="1" parent="1">
          <mxGeometry x="188" y="304" width="157" height="39" as="geometry" />
        </mxCell>
        <mxCell id="khzNMPUFedaNidEhiiPi-7" value="FilterBlock 1" style="rounded=0;whiteSpace=wrap;html=1;fontSize=13;strokeColor=#000000;strokeWidth=1;fillColor=#d5e8d4;" vertex="1" parent="1">
          <mxGeometry x="188" y="343" width="157" height="39" as="geometry" />
        </mxCell>
        <mxCell id="khzNMPUFedaNidEhiiPi-8" value="&lt;span style=&quot;font-size: 13px;&quot;&gt;...&lt;/span&gt;" style="rounded=0;whiteSpace=wrap;html=1;fillColor=#d5e8d4;strokeColor=#000000;strokeWidth=1;fontSize=13;" vertex="1" parent="1">
          <mxGeometry x="188" y="382" width="157" height="37" as="geometry" />
        </mxCell>
        <mxCell id="khzNMPUFedaNidEhiiPi-9" value="FilterBlock N" style="rounded=0;whiteSpace=wrap;html=1;fontSize=13;strokeColor=#000000;strokeWidth=1;fillColor=#d5e8d4;" vertex="1" parent="1">
          <mxGeometry x="188" y="419" width="157" height="39" as="geometry" />
        </mxCell>
        <mxCell id="khzNMPUFedaNidEhiiPi-10" value="MetaIndex Block" style="rounded=0;whiteSpace=wrap;html=1;fontSize=13;strokeColor=#000000;strokeWidth=1;fillColor=#d5e8d4;" vertex="1" parent="1">
          <mxGeometry x="188" y="458" width="157" height="39" as="geometry" />
        </mxCell>
        <mxCell id="khzNMPUFedaNidEhiiPi-11" value="IndexBlock" style="rounded=0;whiteSpace=wrap;html=1;fontSize=13;strokeColor=#000000;strokeWidth=1;fillColor=#dae8fc;" vertex="1" parent="1">
          <mxGeometry x="188" y="497" width="157" height="39" as="geometry" />
        </mxCell>
        <mxCell id="khzNMPUFedaNidEhiiPi-12" value="IndexBlock" style="rounded=0;whiteSpace=wrap;html=1;fontSize=13;strokeColor=#000000;strokeWidth=1;fillColor=#f8cecc;" vertex="1" parent="1">
          <mxGeometry x="188" y="536" width="157" height="39" as="geometry" />
        </mxCell>
      </root>
    </mxGraphModel>
  </diagram>
</mxfile>
